<?xml version="1.0" standalone="no"?><!DOCTYPE svg PUBLIC "-//W3C//DTD SVG 1.1//EN" "http://www.w3.org/Graphics/SVG/1.1/DTD/svg11.dtd"><svg t="1615704285469" class="icon" viewBox="0 0 1024 1024" version="1.1" xmlns="http://www.w3.org/2000/svg" p-id="1990" xmlns:xlink="http://www.w3.org/1999/xlink" width="200" height="200"><defs><style type="text/css"></style></defs><path d="M170.666667 810.666667v-341.333334a341.376 341.376 0 0 1 298.752-338.688A43.306667 43.306667 0 0 1 469.333333 128V85.333333a42.666667 42.666667 0 0 1 85.333334 0v42.666667c0 0.853333 0 1.749333-0.085334 2.645333A341.376 341.376 0 0 1 853.333333 469.333333v341.333334h85.333334a42.666667 42.666667 0 0 1 0 85.333333H85.333333a42.666667 42.666667 0 0 1 0-85.333333h85.333334z m85.333333 0h512v-341.333334a256 256 0 1 0-512 0v341.333334z m192 128h128a64 64 0 0 1-128 0z" fill="#595959" p-id="1991"></path></svg>