<?xml version="1.0" standalone="no"?><!DOCTYPE svg PUBLIC "-//W3C//DTD SVG 1.1//EN" "http://www.w3.org/Graphics/SVG/1.1/DTD/svg11.dtd"><svg t="1612420630628" class="icon" viewBox="0 0 1024 1024" version="1.1" xmlns="http://www.w3.org/2000/svg" p-id="907" xmlns:xlink="http://www.w3.org/1999/xlink" width="200" height="200"><defs><style type="text/css"></style></defs><path d="M252.8 643.2H768c51.2-3.2 96 35.2 99.2 86.4v89.6c0 16-22.4 22.4-38.4 22.4H198.4c-16-3.2-38.4-9.6-38.4-25.6v-89.6c3.2-48 48-86.4 96-86.4l-3.2 3.2zM512 160c86.4 0 160 67.2 160 153.6v6.4c-3.2 54.4-32 102.4-80 131.2v12.8c-9.6 9.6-12.8 22.4-12.8 35.2v16c0 19.2-3.2 35.2 12.8 51.2v3.2h6.4c25.6 3.2 44.8 22.4 48 48H384c3.2-25.6 22.4-44.8 48-48h6.4v-3.2c9.6-9.6 12.8-22.4 12.8-35.2v-16c0-19.2 3.2-35.2-12.8-51.2v-12.8C384 422.4 352 368 352 313.6v-6.4C355.2 224 425.6 160 512 160z" p-id="908"></path></svg>