<?xml version="1.0" standalone="no"?><!DOCTYPE svg PUBLIC "-//W3C//DTD SVG 1.1//EN" "http://www.w3.org/Graphics/SVG/1.1/DTD/svg11.dtd"><svg t="1615705479990" class="icon" viewBox="0 0 1024 1024" version="1.1" xmlns="http://www.w3.org/2000/svg" p-id="1861" xmlns:xlink="http://www.w3.org/1999/xlink" width="200" height="200"><defs><style type="text/css"></style></defs><path d="M941.056 837.12l-64-135.68V478.208c0-159.232-104.96-300.032-253.952-347.136v-2.048c0-59.904-48.64-108.544-108.544-108.544S406.016 69.12 406.016 129.024v1.024C254.976 176.64 148.48 317.44 148.48 478.208v222.72l-65.536 135.68c-5.632 11.264-4.608 25.088 2.048 35.84a36.737 36.737 0 0 0 31.232 17.408h194.56C352.768 959.488 429.568 1003.52 512 1003.52s159.232-44.032 201.216-113.664h194.56c12.8 0 24.576-6.656 31.232-17.408 6.656-10.24 7.68-23.552 2.048-35.328zM512 929.792c-39.424 0-76.8-14.336-105.472-39.424h210.944C588.8 914.944 551.424 929.792 512 929.792zM175.616 816.128l43.52-90.112c2.56-5.12 3.584-10.752 3.584-15.872V478.72c0-138.24 98.304-257.536 232.96-284.672 10.752-2.048 20.48-9.216 25.6-18.944 5.12-9.728 5.632-21.504 1.024-31.744-2.048-4.096-3.072-9.216-3.072-13.824 0-18.944 15.36-34.816 34.816-34.816 18.944 0 34.816 15.36 34.816 34.816 0 5.12-1.024 9.728-3.072 13.824-4.608 10.24-4.096 22.016 1.024 31.744 5.12 9.728 14.336 16.896 25.6 19.456 133.632 27.648 230.912 147.456 230.912 284.16v231.424c0 5.632 1.024 10.752 3.584 15.872l42.496 90.624H175.616z" p-id="1862"></path></svg>