<?xml version="1.0" standalone="no"?><!DOCTYPE svg PUBLIC "-//W3C//DTD SVG 1.1//EN" "http://www.w3.org/Graphics/SVG/1.1/DTD/svg11.dtd"><svg t="1614173766077" class="icon" viewBox="0 0 1024 1024" version="1.1" xmlns="http://www.w3.org/2000/svg" p-id="3006" xmlns:xlink="http://www.w3.org/1999/xlink" width="200" height="200"><defs><style type="text/css"></style></defs><path d="M938.667 0H85.333C38.4 0 0 38.4 0 85.333V768c0 46.933 38.4 85.333 85.333 85.333H128c25.6 0 42.667 17.067 42.667 42.667v72.533c0 46.934 34.133 68.267 76.8 46.934L512 874.667c21.333-12.8 55.467-21.334 81.067-21.334h345.6c46.933 0 85.333-38.4 85.333-85.333V85.333C1024 38.4 985.6 0 938.667 0zM385.55 497.685h80.82V445.96H385.55c-34.003 0-51.006-11.255-51.006-33.765 0-22.03 17.003-33.046 51.007-33.046h45.618l-107.4-168.466c-8.621-13.41-14.25-22.99-16.884-28.736-2.634-5.748-3.95-12.093-3.95-19.038 0-12.453 3.771-22.45 11.315-29.993 7.543-7.543 17.3-11.315 29.274-11.315 12.214 0 22.09 3.712 29.634 11.136 7.544 7.423 16.344 19.396 26.401 35.919l116.023 181.757L619.39 179.073a1737.696 1737.696 0 0 1 12.213-21.013c4.31-7.305 8.502-13.53 12.572-18.68 4.071-5.149 9.16-9.398 15.266-12.75 6.107-3.355 13.35-5.03 21.732-5.03 11.974 0 21.732 3.652 29.275 10.955 7.543 7.304 11.315 16.224 11.315 26.761 0 8.382-1.497 16.044-4.49 22.99-2.994 6.943-7.723 15.684-14.19 26.22l-103.449 170.62h45.618c33.766 0 50.648 11.016 50.648 33.047 0 22.51-16.882 33.765-50.648 33.765h-81.177v51.725h81.178c33.766 0 50.648 11.256 50.648 33.766 0 22.03-16.882 33.045-50.648 33.045h-81.178v28.737c0 48.612-16.165 72.917-48.493 72.917-32.808 0-49.21-24.305-49.21-72.917v-28.736H385.55c-34.003 0-51.006-11.016-51.006-33.046 0-22.51 17.003-33.766 51.007-33.766z" p-id="3007"></path></svg>