<?xml version="1.0" standalone="no"?><!DOCTYPE svg PUBLIC "-//W3C//DTD SVG 1.1//EN" "http://www.w3.org/Graphics/SVG/1.1/DTD/svg11.dtd"><svg t="1613696283240" class="icon" viewBox="0 0 1230 1024" version="1.1" xmlns="http://www.w3.org/2000/svg" p-id="3368" xmlns:xlink="http://www.w3.org/1999/xlink" width="240.234375" height="200"><defs><style type="text/css"></style></defs><path d="M723.454191 684.544849c-4.607988 0-36.351909-36.351909-13.823965-102.399744a385.023037 385.023037 0 0 0 91.135772-242.175395c0-138.751653-86.527784-210.943473-177.151557-210.943473s-177.663556 71.679821-177.663556 210.431474a381.951045 381.951045 0 0 0 86.527784 242.175395 98.303754 98.303754 0 0 1-22.527944 102.399744c-102.399744 40.959898-214.015465 113.151717-214.015465 189.951525v26.111935c0 97.791756 168.447579 123.391692 327.679181 123.391691s323.071192-20.479949 323.071192-123.391691v-26.111935c-4.607988-76.287809-122.879693-153.599616-223.231442-189.439526zM1023.99744 499.201312c-4.607988 0-32.255919-10.239974-13.823965-72.19182a358.399104 358.399104 0 0 0 77.311806-226.303434C1087.485281 72.19438 1014.781463 0.00256 921.597696 0.00256a147.96763 147.96763 0 0 0-143.359642 108.03173A307.199232 307.199232 0 0 1 870.397824 339.457711a483.83879 483.83879 0 0 1-95.231762 278.015305c77.311807 30.719923 195.583511 97.279757 227.327432 200.703499 118.271704-5.119987 227.83943-36.351909 227.83943-113.663716v-25.599936c4.09599-76.799808-104.959738-143.87164-204.799488-179.711551z m-819.197952 0c4.607988 0 31.743921-10.239974 13.823965-72.19182a358.399104 358.399104 0 0 1-77.311806-226.303434C145.919635 72.19438 218.623453 0.00256 307.199232 0.00256a147.96763 147.96763 0 0 1 143.359642 108.03173A307.199232 307.199232 0 0 0 358.399104 339.457711a484.350789 484.350789 0 0 0 95.743761 278.015305c-76.287809 30.719923-194.559514 99.327752-226.815433 201.727496C109.055727 813.056527 0 781.824605 0 704.512799v-25.599936c0-76.799808 109.567726-143.87164 204.799488-179.711551z" p-id="3369"></path></svg>