<?xml version="1.0" standalone="no"?><!DOCTYPE svg PUBLIC "-//W3C//DTD SVG 1.1//EN" "http://www.w3.org/Graphics/SVG/1.1/DTD/svg11.dtd"><svg t="1613981702854" class="icon" viewBox="0 0 1025 1024" version="1.1" xmlns="http://www.w3.org/2000/svg" p-id="1157" xmlns:xlink="http://www.w3.org/1999/xlink" width="200.1953125" height="200"><defs><style type="text/css"></style></defs><path d="M988.939 438.704l-105.287-22.675a384.026 384.026 0 0 0-41.153-99.298l58.402-90.546c20.73-20.73 7.217-41.92-14.23-63.367l-25.848-25.848c-21.395-21.395-42.636-34.908-63.315-14.178l-90.546 58.402a382.376 382.376 0 0 0-99.298-41.204L584.938 34.703C584.938 5.426 560.421 0 530.12 0h-36.545c-30.302 0-54.87 5.426-54.87 34.703L416.029 139.99a383.453 383.453 0 0 0-99.35 41.204l-90.494-58.453c-20.73-20.679-41.92-7.166-63.367 14.23l-25.848 25.847c-21.395 21.447-34.908 42.637-14.23 63.367l58.454 90.546a380.493 380.493 0 0 0-41.153 99.298L34.703 438.704C5.426 438.704 0 463.272 0 493.574v36.545c0 30.302 5.426 54.82 34.703 54.82l105.338 22.725a380.493 380.493 0 0 0 41.153 99.298l-58.453 90.546c-20.679 20.679-7.166 41.92 14.23 63.315l25.847 25.849c21.447 21.446 42.637 34.959 63.367 14.229l90.494-58.402c30.66 18.12 64.032 32.093 99.35 41.153l22.675 105.287c0 29.277 24.568 34.754 54.87 34.754h36.545c30.302 0 54.82-5.477 54.82-34.754l22.725-105.287a380.493 380.493 0 0 0 99.298-41.153l90.546 58.402c20.679 20.73 41.92 7.217 63.315-14.23l25.849-25.848c21.446-21.395 34.959-42.636 14.229-63.315l-58.402-90.546c18.068-30.608 32.093-63.98 41.153-99.298l105.287-22.726c29.277 0 34.754-24.517 34.754-54.819v-36.545c0-30.302-5.477-54.87-34.754-54.87zM511.846 749.497c-131.237 0-237.65-106.413-237.65-237.65 0-131.238 106.413-237.65 237.65-237.65 131.238 0 237.65 106.412 237.65 237.65 0 131.237-106.412 237.65-237.65 237.65z m0-347.34c-60.602 0-109.688 49.087-109.688 109.69 0 60.55 49.086 109.688 109.688 109.688 60.552 0 109.69-49.137 109.69-109.689 0-60.602-49.138-109.688-109.69-109.688z" p-id="1158"></path></svg>